<svg id="Layer_1" data-name="Layer 1" xmlns="http://www.w3.org/2000/svg" viewBox="0 0 600 439.71"><defs><style>.cls-1{fill:#fff;}.cls-2{fill:#d4c5af;}</style></defs><path class="cls-1" d="M306,202.33v86.08s69.69-31.5,97.93-98.12a122.29,122.29,0,0,0,6.15-19c6.21-25.67,8.73-34,9.11-82.56Zm0-173.94V151.45l98.59-98.58C388.88,43.33,358.7,30.94,306,28.39Z"/><path class="cls-2" d="M297,211.41l-57.21-55.64,26.77-25.71L296,161.55,306,151.45V28.39c-87.91,4.26-113.22,36-113.22,36-.24,70.9,2,77.43,9.15,106.89a122.29,122.29,0,0,0,6.15,19C236.36,256.91,306,288.41,306,288.41V202.33Z"/><path class="cls-1" d="M193.13,364.45H161.74l-6,14.49h-16l30.12-67.6H185.3l30.23,67.6H199.11Zm-4.93-11.87L177.48,326.7l-10.72,25.88Z"/><path class="cls-1" d="M261.68,378.94l-16.31-23.47-16,23.47h-18l25-34.38-23.75-33.22H230.4l15.54,21.92,15.26-21.92h16.9L254.54,344l25.2,35Z"/><path class="cls-1" d="M285.92,311.34h15.64v67.6H285.92Z"/><path class="cls-1" d="M325.07,372.08q-8.06-8-8.06-22.88V311.34h15.64v37.28q0,18.15,15.07,18.15,7.33,0,11.2-4.39t3.86-13.76V311.34h15.45V349.2q0,14.87-8.06,22.88t-22.55,8Q333.13,380.1,325.07,372.08Z"/><path class="cls-1" d="M455.19,378.94l-.1-40.56L435.2,371.79h-7.05l-19.79-32.54v39.69H393.68v-67.6h12.94l25.3,42,24.91-42h12.84l.2,67.6Z"/><path class="cls-1" d="M181.81,406.34a7.18,7.18,0,0,1,1,3.88,6.14,6.14,0,0,1-2,4.93,8.79,8.79,0,0,1-5.89,1.73h-10V392.32h9.47a8.12,8.12,0,0,1,5.52,1.7,5.93,5.93,0,0,1,1.93,4.69,7.24,7.24,0,0,1-.69,3.23,5.26,5.26,0,0,1-1.91,2.17A5.47,5.47,0,0,1,181.81,406.34ZM168.58,395.9v6.77h5.32a4.64,4.64,0,0,0,3-.86,3,3,0,0,0,1.05-2.5,3.11,3.11,0,0,0-1.05-2.55,4.7,4.7,0,0,0-3-.86ZM179,409.76q0-3.54-4.36-3.54h-6.07v7.09h6.07C177.56,413.31,179,412.12,179,409.76Z"/><path class="cls-1" d="M189,414.38q-2.34-2.86-2.34-8.2V392.32h3.76V406q0,7.23,5.14,7.22t5.11-7.22V392.32h3.69v13.86q0,5.34-2.32,8.2a8.88,8.88,0,0,1-13,0Z"/><path class="cls-1" d="M211.34,416.43a9,9,0,0,1-3.46-2.14l1.3-3.55a9.74,9.74,0,0,0,3,1.95,9.38,9.38,0,0,0,3.63.76,5.4,5.4,0,0,0,3.36-.88,2.82,2.82,0,0,0,1.11-2.32,2.48,2.48,0,0,0-.62-1.73,4.1,4.1,0,0,0-1.57-1.07c-.64-.26-1.51-.55-2.6-.88a26.18,26.18,0,0,1-3.74-1.34,6.31,6.31,0,0,1-2.46-2.08,6.47,6.47,0,0,1-1-3.84,7.61,7.61,0,0,1,.91-3.71A6.56,6.56,0,0,1,212,393a9.46,9.46,0,0,1,4.49-1,12.23,12.23,0,0,1,3.64.56,9.47,9.47,0,0,1,3.09,1.62L222,397.69a10.83,10.83,0,0,0-2.78-1.44,8.84,8.84,0,0,0-2.8-.49,5.08,5.08,0,0,0-3.3.91A3,3,0,0,0,212,399.1a2.41,2.41,0,0,0,.62,1.71,4.35,4.35,0,0,0,1.58,1.06c.63.25,1.5.55,2.6.87a24.18,24.18,0,0,1,3.69,1.32,6.4,6.4,0,0,1,2.47,2.09,6.24,6.24,0,0,1,1,3.79,7.57,7.57,0,0,1-.91,3.68,6.57,6.57,0,0,1-2.76,2.63,9.41,9.41,0,0,1-4.5,1A12.85,12.85,0,0,1,211.34,416.43Z"/><path class="cls-1" d="M227.75,392.32h3.76v24.56h-3.76Z"/><path class="cls-1" d="M254.92,392.32v24.56h-3.09l-11.14-16.63v16.63H237V392.32h3.09L251.2,409V392.32Z"/><path class="cls-1" d="M275.51,413.06v3.82H260.35V392.32h14.76v3.83h-11v6.38h9.76v3.76h-9.76v6.77Z"/><path class="cls-1" d="M281.45,416.43a8.88,8.88,0,0,1-3.45-2.14l1.29-3.55a9.74,9.74,0,0,0,3,1.95,9.38,9.38,0,0,0,3.63.76,5.4,5.4,0,0,0,3.36-.88,2.82,2.82,0,0,0,1.11-2.32,2.48,2.48,0,0,0-.62-1.73,4.1,4.1,0,0,0-1.57-1.07c-.64-.26-1.5-.55-2.6-.88a26.18,26.18,0,0,1-3.74-1.34,6.31,6.31,0,0,1-2.46-2.08,6.47,6.47,0,0,1-1-3.84,7.61,7.61,0,0,1,.91-3.71,6.62,6.62,0,0,1,2.74-2.65,9.46,9.46,0,0,1,4.49-1,12.23,12.23,0,0,1,3.64.56,9.47,9.47,0,0,1,3.09,1.62l-1.18,3.54a10.83,10.83,0,0,0-2.78-1.44,8.84,8.84,0,0,0-2.8-.49,5.08,5.08,0,0,0-3.3.91,3,3,0,0,0-1.09,2.43,2.37,2.37,0,0,0,.63,1.71,4.23,4.23,0,0,0,1.57,1.06c.63.25,1.5.55,2.6.87a24.18,24.18,0,0,1,3.69,1.32,6.4,6.4,0,0,1,2.47,2.09,6.24,6.24,0,0,1,1,3.79,7.57,7.57,0,0,1-.91,3.68,6.57,6.57,0,0,1-2.76,2.63,9.41,9.41,0,0,1-4.5,1A12.85,12.85,0,0,1,281.45,416.43Z"/><path class="cls-1" d="M299.61,416.43a9,9,0,0,1-3.45-2.14l1.3-3.55a9.69,9.69,0,0,0,3,1.95,9.46,9.46,0,0,0,3.63.76,5.4,5.4,0,0,0,3.36-.88,2.83,2.83,0,0,0,1.12-2.32,2.44,2.44,0,0,0-.63-1.73,4.1,4.1,0,0,0-1.57-1.07c-.63-.26-1.5-.55-2.6-.88a26.64,26.64,0,0,1-3.74-1.34,6.21,6.21,0,0,1-2.45-2.08,6.4,6.4,0,0,1-1-3.84,7.72,7.72,0,0,1,.91-3.71,6.58,6.58,0,0,1,2.75-2.65,9.43,9.43,0,0,1,4.49-1,12.17,12.17,0,0,1,3.63.56,9.27,9.27,0,0,1,3.09,1.62l-1.18,3.54a10.94,10.94,0,0,0-2.77-1.44,8.93,8.93,0,0,0-2.8-.49,5.09,5.09,0,0,0-3.31.91,3,3,0,0,0-1.08,2.43,2.37,2.37,0,0,0,.62,1.71,4.31,4.31,0,0,0,1.57,1.06c.64.25,1.5.55,2.6.87a24.75,24.75,0,0,1,3.7,1.32,6.55,6.55,0,0,1,2.47,2.09,6.31,6.31,0,0,1,1,3.79,7.46,7.46,0,0,1-.91,3.68,6.45,6.45,0,0,1-2.76,2.63,9.41,9.41,0,0,1-4.5,1A12.85,12.85,0,0,1,299.61,416.43Z"/><path class="cls-1" d="M341,406.34a7.1,7.1,0,0,1,1,3.88,6.17,6.17,0,0,1-2,4.93,8.82,8.82,0,0,1-5.9,1.73H324V392.32h9.47A8.11,8.11,0,0,1,339,394a5.94,5.94,0,0,1,1.94,4.69,7.11,7.11,0,0,1-.7,3.23,5.23,5.23,0,0,1-1.9,2.17A5.44,5.44,0,0,1,341,406.34ZM327.75,395.9v6.77h5.31a4.63,4.63,0,0,0,3-.86,3,3,0,0,0,1.05-2.5,3.11,3.11,0,0,0-1.05-2.55,4.68,4.68,0,0,0-3-.86Zm10.42,13.86q0-3.54-4.36-3.54h-6.06v7.09h6.06C336.72,413.31,338.17,412.12,338.17,409.76Z"/><path class="cls-1" d="M348.14,414.38q-2.34-2.86-2.34-8.2V392.32h3.75V406q0,7.23,5.14,7.22T359.8,406V392.32h3.7v13.86q0,5.34-2.33,8.2a8.87,8.87,0,0,1-13,0Z"/><path class="cls-1" d="M377.19,408.22v8.66h-3.76v-8.59l-7.94-16h4l5.92,12,6-12h3.7Z"/><path class="cls-1" d="M402.42,413.06v3.82H387.26V392.32H402v3.83H391v6.38h9.76v3.76H391v6.77Z"/><path class="cls-1" d="M419.84,416.88l-4.13-7.19a5.21,5.21,0,0,1-.78,0h-4.56v7.15h-3.76V392.32h8.32a9.35,9.35,0,0,1,4.57,1.06,7.12,7.12,0,0,1,3,3,9.78,9.78,0,0,1,1,4.67,9.67,9.67,0,0,1-1.11,4.77,6.88,6.88,0,0,1-3.19,3l4.65,8.07Zm-1.36-19.43a5,5,0,0,0-3.73-1.27h-4.38V406h4.38a5,5,0,0,0,3.73-1.28,4.91,4.91,0,0,0,1.27-3.63A4.84,4.84,0,0,0,418.48,397.45Z"/><path class="cls-1" d="M429.46,416.43a8.92,8.92,0,0,1-3.44-2.14l1.29-3.55a9.74,9.74,0,0,0,3.05,1.95,9.37,9.37,0,0,0,3.62.76,5.41,5.41,0,0,0,3.37-.88,2.82,2.82,0,0,0,1.11-2.32,2.48,2.48,0,0,0-.62-1.73,4.1,4.1,0,0,0-1.57-1.07c-.64-.26-1.51-.55-2.6-.88a26.18,26.18,0,0,1-3.74-1.34,6.24,6.24,0,0,1-2.46-2.08,6.47,6.47,0,0,1-1-3.84,7.61,7.61,0,0,1,.91-3.71A6.56,6.56,0,0,1,430.1,393a9.46,9.46,0,0,1,4.49-1,12.23,12.23,0,0,1,3.64.56,9.47,9.47,0,0,1,3.09,1.62l-1.19,3.54a10.61,10.61,0,0,0-2.77-1.44,8.84,8.84,0,0,0-2.8-.49,5.08,5.08,0,0,0-3.3.91,3,3,0,0,0-1.09,2.43,2.41,2.41,0,0,0,.62,1.71,4.35,4.35,0,0,0,1.58,1.06c.63.25,1.5.55,2.6.87a24.18,24.18,0,0,1,3.69,1.32,6.48,6.48,0,0,1,2.47,2.09,6.31,6.31,0,0,1,1,3.79,7.57,7.57,0,0,1-.91,3.68,6.57,6.57,0,0,1-2.76,2.63,9.43,9.43,0,0,1-4.51,1A12.93,12.93,0,0,1,429.46,416.43Z"/></svg>